<?xml version="1.0" standalone="no"?>
<!DOCTYPE svg PUBLIC "-//W3C//DTD SVG 20010904//EN"
 "http://www.w3.org/TR/2001/REC-SVG-20010904/DTD/svg10.dtd">
<svg version="1.0" xmlns="http://www.w3.org/2000/svg"
 width="80.000000pt" height="80.000000pt" viewBox="0 0 80.000000 80.000000"
 preserveAspectRatio="xMidYMid meet">
<metadata>
Created by potrace 1.11, written by Peter Selinger 2001-2013
</metadata>
<g transform="translate(0.000000,80.000000) scale(0.100000,-0.100000)"
fill="#000000" stroke="none">
<path d="M53 738 c-23 -34 -28 -53 -28 -104 0 -54 4 -68 33 -107 l32 -45 -11
-79 c-6 -43 -20 -103 -31 -133 -12 -31 -23 -89 -25 -132 -4 -67 -2 -79 16 -97
22 -22 101 -30 101 -11 0 13 -37 50 -50 50 -5 0 -10 13 -10 29 0 23 8 34 34
50 18 12 36 21 40 21 3 0 6 -27 6 -60 0 -75 20 -100 80 -100 22 0 40 5 40 10
0 13 -37 50 -50 50 -5 0 -10 13 -10 29 0 22 9 35 38 55 21 14 48 40 61 56 18
25 26 29 49 24 15 -4 28 -8 30 -9 1 -1 14 -44 28 -96 13 -51 30 -99 36 -106
13 -16 188 -19 188 -3 0 13 -37 50 -50 50 -16 0 -12 192 5 233 9 23 15 69 15
122 0 106 9 125 56 125 26 0 43 8 64 29 26 25 49 76 39 85 -2 2 -24 6 -49 10
-44 6 -50 11 -91 67 -11 17 -28 23 -70 27 -47 3 -57 1 -80 -20 -14 -13 -38
-58 -54 -99 -47 -127 -35 -119 -186 -119 -158 0 -195 11 -204 63 -9 47 2 95
31 134 26 35 29 43 14 43 -5 0 -22 -19 -37 -42z"/>
</g>
</svg>
